HIERARCHY
ROOT SpineBase
{
  OFFSET 0.000000 0.000000 0.000000
  CHANNELS 6 Xposition Yposition Zposition Zrotation Xrotation Yrotation
  JOINT SpineMid
  {
    OFFSET 0.000000 31.069127 0.000000
    CHANNELS 3 Zrotation Xrotation Yrotation
    JOINT SpineShoulder
    {
      OFFSET 0.112911 23.064961 -0.738317
      CHANNELS 3 Zrotation Xrotation Yrotation
      JOINT Neck
      {
        OFFSET 0.084813 7.624368 -0.556206
        CHANNELS 3 Zrotation Xrotation Yrotation
        JOINT Head
        {
          OFFSET 1.998447 13.362791 -1.458008
          CHANNELS 3 Zrotation Xrotation Yrotation
          End Site
          {
            OFFSET 0 0 0
          }
        }
      }
      JOINT ShoulderLeft
      {
        OFFSET -14.975391 -3.378689 -7.735562
        CHANNELS 3 Zrotation Xrotation Yrotation
        JOINT ElbowLeft
        {
          OFFSET -5.691971 -25.269533 -3.810923
          CHANNELS 3 Zrotation Xrotation Yrotation
          JOINT WristLeft
          {
            OFFSET -0.863011 -22.274881 -5.247034
            CHANNELS 3 Zrotation Xrotation Yrotation
            JOINT HandLeft
            {
              OFFSET 0.267646 -5.324300 0.017710
              CHANNELS 3 Zrotation Xrotation Yrotation
              JOINT HandTipLeft
              {
                OFFSET 0.274297 -6.014669 -0.872845
                CHANNELS 3 Zrotation Xrotation Yrotation
                End Site
                {
                  OFFSET 0 0 0
                }
              }
              JOINT ThumbLeft
              {
                OFFSET 3.174514 0.869735 0.246840
                CHANNELS 3 Zrotation Xrotation Yrotation
                End Site
                {
                  OFFSET 0 0 0
                }
              }
            }
          }
        }
      }
      JOINT ShoulderRight
      {
        OFFSET 17.194145 -5.372855 4.745637
        CHANNELS 3 Zrotation Xrotation Yrotation
        JOINT ElbowRight
        {
          OFFSET 4.872183 -25.592366 -0.765910
          CHANNELS 3 Zrotation Xrotation Yrotation
          JOINT WristRight
          {
            OFFSET -0.861705 -24.061687 -5.336742
            CHANNELS 3 Zrotation Xrotation Yrotation
            JOINT HandRight
            {
              OFFSET -0.161485 -3.102618 -0.993562
              CHANNELS 3 Zrotation Xrotation Yrotation
              JOINT HandTipRight
              {
                OFFSET 0.450592 -3.873543 -1.117199
                CHANNELS 3 Zrotation Xrotation Yrotation
                End Site
                {
                  OFFSET 0 0 0
                }
              }
              JOINT ThumbRight
              {
                OFFSET 3.157447 0.552548 -2.305557
                CHANNELS 3 Zrotation Xrotation Yrotation
                End Site
                {
                  OFFSET 0 0 0
                }
              }
            }
          }
        }
      }
    }
  }
  JOINT HipLeft
  {
    OFFSET -6.638452 0.958484 -6.116045
    CHANNELS 3 Zrotation Xrotation Yrotation
    JOINT KneeLeft
    {
      OFFSET -7.032459 -30.074351 2.330785
      CHANNELS 3 Zrotation Xrotation Yrotation
      JOINT AnkleLeft
      {
        OFFSET -2.408125 -31.623132 5.626886
        CHANNELS 3 Zrotation Xrotation Yrotation
        JOINT FootLeft
        {
          OFFSET 4.008715 -4.026801 -12.446377
          CHANNELS 3 Zrotation Xrotation Yrotation
          End Site
          {
            OFFSET 0 0 0
          }
        }
      }
    }
  }
  JOINT HipRight
  {
    OFFSET 7.552718 0.217312 -0.651017
    CHANNELS 3 Zrotation Xrotation Yrotation
    JOINT KneeRight
    {
      OFFSET -0.859095 -30.032739 6.250353
      CHANNELS 3 Zrotation Xrotation Yrotation
      JOINT AnkleRight
      {
        OFFSET -2.365575 -31.691162 6.915564
        CHANNELS 3 Zrotation Xrotation Yrotation
        JOINT FootRight
        {
          OFFSET -1.439692 -7.469063 -6.088459
          CHANNELS 3 Zrotation Xrotation Yrotation
          End Site
          {
            OFFSET 0 0 0
          }
        }
      }
    }
  }
}
MOTION
Frames: 9
Frame Time: 0.033333
-44.199006 70.087580 355.922823 -9.989345 -8.252054 5.651320 0.080379 -0.006782 -6.654175 0.174349 -0.083131 -0.355512 4.839479 -2.257478 1.217558 0.000000 0.000000 0.000000 -0.586098 5.228001 3.326665 57.470925 30.704491 -28.130420 12.118921 9.827264 13.970734 -7.191368 -24.194323 -0.602698 0.000000 0.000000 0.000000 0.000000 0.000000 0.000000 0.827052 9.037589 1.636554 -62.431213 15.089925 25.730905 -6.782043 -5.588316 2.906626 9.477150 9.626890 9.877770 0.000000 0.000000 0.000000 0.000000 0.000000 0.000000 4.990877 2.041633 -5.660324 0.062060 -5.669824 -1.207020 -2.292705 3.421089 20.660544 0.000000 0.000000 0.000000 34.971772 32.923742 -12.586056 -4.074529 -14.400159 -0.073841 -9.399162 5.317680 -10.062492 0.000000 0.000000 0.000000
-41.868607 69.635466 353.875980 -10.178506 -8.813719 6.527221 -0.043991 -0.258041 -7.615478 0.173591 -0.099421 -0.363876 1.533592 -2.617649 1.149209 0.000000 0.000000 0.000000 2.657767 8.391998 2.189138 52.411561 27.804095 -24.233544 6.276618 11.001317 11.368783 6.636272 -25.730109 5.558946 0.000000 0.000000 0.000000 0.000000 0.000000 0.000000 1.301777 10.351013 1.764736 -61.697343 14.344987 24.505739 -11.957338 -10.021122 -0.255235 10.794221 9.059696 7.691925 0.000000 0.000000 0.000000 0.000000 0.000000 0.000000 3.889576 1.711322 -6.417350 -0.133271 -5.729514 -1.571493 -1.828136 -3.082280 20.288875 0.000000 0.000000 0.000000 35.180425 33.139224 -13.802055 -5.944525 -16.822140 -0.835702 -8.781627 8.759381 -8.219203 0.000000 0.000000 0.000000
-39.513390 69.190584 351.799581 -10.392017 -9.608258 7.267743 0.066599 -0.177925 -8.445169 0.172368 -0.125877 -0.366400 -0.911161 -2.650079 1.124998 0.000000 0.000000 0.000000 2.408875 9.082400 2.319616 53.110943 27.018909 -24.180688 -28.914446 14.267906 2.832842 59.428331 -24.073553 30.653257 0.000000 0.000000 0.000000 0.000000 0.000000 0.000000 1.234057 10.811935 1.762953 -61.314685 14.274734 24.570939 -16.875813 -15.810696 -5.169515 12.404770 12.923179 8.460284 0.000000 0.000000 0.000000 0.000000 0.000000 0.000000 2.716341 1.703411 -7.058276 -0.013593 -5.652482 -1.896953 -1.908210 -11.793821 19.600152 0.000000 0.000000 0.000000 35.723898 33.835974 -15.167717 -8.131882 -19.815802 -1.789791 -8.354589 12.418354 -6.115455 0.000000 0.000000 0.000000
-37.507362 68.860225 350.121859 -10.258734 -10.266004 7.110081 0.150803 -0.128372 -8.327393 0.129204 -0.211619 -0.359855 -4.717537 -3.092439 1.092458 0.000000 0.000000 0.000000 2.417361 10.606600 2.146943 52.296380 26.667956 -23.226080 -20.039484 -9.840938 7.047120 56.836180 -13.116804 10.494122 0.000000 0.000000 0.000000 0.000000 0.000000 0.000000 1.952480 9.662535 1.120192 -64.014287 15.706827 27.746282 -20.671020 -16.754277 -7.024907 11.141375 7.303174 4.080688 0.000000 0.000000 0.000000 0.000000 0.000000 0.000000 1.466605 1.888796 -6.772962 0.154589 -5.488630 -2.133861 -2.500347 -21.004778 18.958871 0.000000 0.000000 0.000000 35.150211 35.069171 -15.504091 -9.652183 -22.403770 -2.547821 -9.634386 19.340648 -3.561338 0.000000 0.000000 0.000000
-35.771049 68.446734 348.751919 -9.865479 -10.690782 6.173366 -0.036447 -0.209894 -7.375297 0.096839 -0.188593 -0.345352 -8.377407 -4.180100 1.039333 0.000000 0.000000 0.000000 1.706485 11.456592 2.285909 54.732821 24.485457 -23.187074 20.843520 -31.810008 34.367337 25.921068 6.069316 -20.506409 0.000000 0.000000 0.000000 0.000000 0.000000 0.000000 1.823924 9.841833 1.047464 -63.571407 16.802776 28.379607 -16.818572 -21.019416 -9.854035 6.251109 8.787182 5.143520 0.000000 0.000000 0.000000 0.000000 0.000000 0.000000 -0.272547 1.912222 -5.637354 0.800402 -4.955885 -2.321735 -3.462183 -29.955084 18.327631 0.000000 0.000000 0.000000 33.596653 36.472957 -14.761325 -10.553545 -23.940077 -3.129505 -9.343573 24.222586 -2.563042 0.000000 0.000000 0.000000
-34.196558 67.810106 347.409547 -9.602848 -11.001024 5.141788 -0.220969 -0.249603 -6.327867 0.135245 -0.076345 -0.332715 -12.586646 -6.094830 0.817733 0.000000 0.000000 0.000000 2.468784 13.511841 1.698912 56.759516 20.896212 -21.868124 49.974678 -49.891591 68.907777 32.836103 27.714707 -48.793602 0.000000 0.000000 0.000000 0.000000 0.000000 0.000000 -0.038491 10.753616 1.629802 -58.418418 18.392642 26.943910 -6.655867 -21.378295 -7.325096 -7.138839 5.384916 5.684859 0.000000 0.000000 0.000000 0.000000 0.000000 0.000000 -2.179844 1.438810 -4.368314 1.812595 -3.911361 -2.547806 -3.942147 -36.125206 18.930503 0.000000 0.000000 0.000000 32.271524 37.583245 -13.791525 -11.555369 -25.217410 -3.759146 -8.120788 27.506346 -2.388359 0.000000 0.000000 0.000000
-33.166328 67.186548 346.515040 -9.581775 -11.174291 4.721648 -0.339414 -0.218198 -5.908765 0.203239 0.095345 -0.325465 -17.043645 -8.610157 0.312799 0.000000 0.000000 0.000000 -0.843613 11.395219 3.173823 69.846346 18.653589 -27.235528 53.302885 -45.159055 77.451778 33.122092 39.159920 -60.333621 0.000000 0.000000 0.000000 0.000000 0.000000 0.000000 -2.903998 12.115057 2.712209 -52.372391 17.550747 23.819990 2.807918 -17.901142 -3.437073 -11.935997 3.921441 5.741815 0.000000 0.000000 0.000000 0.000000 0.000000 0.000000 -3.508278 1.437012 -3.858632 2.755061 -3.353549 -2.641461 -3.910137 -38.444413 19.204203 0.000000 0.000000 0.000000 31.649514 37.755752 -13.293311 -12.146399 -25.498081 -4.142162 -5.288991 30.593508 -4.269264 0.000000 0.000000 0.000000
-32.443683 66.988002 345.895837 -10.218625 -10.980548 2.201256 -0.432499 -0.225897 -3.450334 0.277681 0.255042 -0.345308 -24.656055 -13.003903 -1.237007 0.000000 0.000000 0.000000 1.736060 14.903014 1.902881 70.875272 12.528074 -22.037572 47.257854 -41.485895 73.258258 30.942451 41.780921 -62.397715 0.000000 0.000000 0.000000 0.000000 0.000000 0.000000 -6.413734 15.134190 4.805900 -42.699248 14.045515 17.272742 16.834105 -7.138458 1.465881 -20.018081 -10.272295 -3.105122 0.000000 0.000000 0.000000 0.000000 0.000000 0.000000 -4.823071 -0.076039 -1.301530 4.612637 -1.553094 -2.868060 -2.358722 -34.949595 24.476643 0.000000 0.000000 0.000000 29.750226 38.988921 -10.366805 -11.108847 -25.855635 -3.603822 -3.776160 28.530703 -5.514894 0.000000 0.000000 0.000000
-31.747954 66.304732 345.342787 -10.292358 -11.176977 1.196092 -0.409280 -0.160464 -2.465455 0.361505 0.383125 -0.339319 -31.579278 -14.372139 -2.446579 0.000000 0.000000 0.000000 4.562325 20.550514 -0.130229 66.107995 7.327776 -13.420495 37.463703 -36.741647 59.651407 13.395391 38.434044 -43.016598 0.000000 0.000000 0.000000 0.000000 0.000000 0.000000 -9.222147 17.894599 6.590395 -38.919348 9.039342 12.606220 24.271160 -3.694590 1.401443 -25.757923 -17.259109 -7.004176 0.000000 0.000000 0.000000 0.000000 0.000000 0.000000 -5.816927 -1.327307 -0.151405 5.360610 0.619636 -3.159029 -1.235437 -34.560312 28.934842 0.000000 0.000000 0.000000 29.298432 40.011680 -9.492325 -11.543353 -26.978518 -3.807106 -3.402033 26.732744 -5.195043 0.000000 0.000000 0.000000
